HIERARCHY
ROOT Hips
{
	OFFSET 64.097298 13.035884 96.667397
	CHANNELS 6 Xposition Yposition Zposition Xrotation Yrotation Zrotation
	JOINT spine
	{
		OFFSET 0.000000 -0.458068 7.965683
		CHANNELS 3 Xrotation Yrotation Zrotation
		JOINT spine1
		{
			OFFSET 0.000000 -0.000002 10.243103
			CHANNELS 3 Xrotation Yrotation Zrotation
			JOINT spine2
			{
				OFFSET 0.000000 -0.000001 9.814751
				CHANNELS 3 Xrotation Yrotation Zrotation
				JOINT Neck
				{
					OFFSET 0.000000 -1.201385 25.198593
					CHANNELS 3 Xrotation Yrotation Zrotation
					JOINT Head
					{
						OFFSET 0.000000 -0.000001 7.613144
						CHANNELS 3 Xrotation Yrotation Zrotation
						End Site
						{
							OFFSET 0.000000 6.077327 18.428101
						}
					}
				}
				JOINT RightShoulder
				{
					OFFSET -4.132698 0.575449 10.599197
					CHANNELS 3 Xrotation Yrotation Zrotation
					JOINT RightArm
					{
						OFFSET 0.000000 -0.000002 13.901794
						CHANNELS 3 Xrotation Yrotation Zrotation
						JOINT RightArmRoll
						{
							OFFSET 0.000000 -0.000002 7.017883
							CHANNELS 3 Xrotation Yrotation Zrotation
							JOINT RightForeArm
							{
								OFFSET 0.000000 -0.000003 20.440598
								CHANNELS 3 Xrotation Yrotation Zrotation
								JOINT RightForeArmRoll
								{
									OFFSET 0.000000 -0.000002 7.875168
									CHANNELS 3 Xrotation Yrotation Zrotation
									JOINT RightHand
									{
										OFFSET 0.000000 -0.000002 15.803696
										CHANNELS 3 Xrotation Yrotation Zrotation
										End Site
										{
											OFFSET 0.000000 0.000000 0.100006
										}
									}
								}
							}
						}
					}
				}
				JOINT LeftShoulder
				{
					OFFSET 4.132698 0.575449 10.599197
					CHANNELS 3 Xrotation Yrotation Zrotation
					JOINT LeftArm
					{
						OFFSET 0.000000 -0.000002 13.901794
						CHANNELS 3 Xrotation Yrotation Zrotation
						JOINT LeftArmRoll
						{
							OFFSET 0.000000 -0.000002 7.017883
							CHANNELS 3 Xrotation Yrotation Zrotation
							JOINT LeftForeArm
							{
								OFFSET 0.000000 -0.000003 20.440598
								CHANNELS 3 Xrotation Yrotation Zrotation
								JOINT LeftForeArmRoll
								{
									OFFSET 0.000000 -0.000002 7.875153
									CHANNELS 3 Xrotation Yrotation Zrotation
									JOINT LeftHand
									{
										OFFSET 0.000000 -0.000002 15.803696
										CHANNELS 3 Xrotation Yrotation Zrotation
										End Site
										{
											OFFSET 0.000000 0.000000 0.100006
										}
									}
								}
							}
						}
					}
				}
			}
		}
	}
	JOINT RightUpLeg
	{
		OFFSET -7.060478 1.086101 -1.294701
		CHANNELS 3 Xrotation Yrotation Zrotation
		JOINT RightUpLegRoll
		{
			OFFSET 0.000000 -0.000003 18.530800
			CHANNELS 3 Xrotation Yrotation Zrotation
			JOINT RightLeg
			{
				OFFSET 0.000000 0.000003 -22.947601
				CHANNELS 3 Xrotation Yrotation Zrotation
				JOINT RightLegRoll
				{
					OFFSET 0.000000 -0.000003 23.022598
					CHANNELS 3 Xrotation Yrotation Zrotation
					JOINT RightFoot
					{
						OFFSET 0.000000 -0.000004 19.162498
						CHANNELS 3 Xrotation Yrotation Zrotation
						JOINT RightToeBase
						{
							OFFSET 0.000000 -0.000002 16.018799
							CHANNELS 3 Xrotation Yrotation Zrotation
							End Site
							{
								OFFSET 0.006790 0.894205 7.757812
							}
						}
					}
				}
			}
		}
	}
	JOINT LeftUpLeg
	{
		OFFSET 7.060478 1.086101 -1.294701
		CHANNELS 3 Xrotation Yrotation Zrotation
		JOINT LeftUpLegRoll
		{
			OFFSET 0.000000 -0.000003 18.530899
			CHANNELS 3 Xrotation Yrotation Zrotation
			JOINT LeftLeg
			{
				OFFSET 0.000000 -0.000004 22.947495
				CHANNELS 3 Xrotation Yrotation Zrotation
				JOINT LeftLegRoll
				{
					OFFSET 0.000000 -0.000004 23.235504
					CHANNELS 3 Xrotation Yrotation Zrotation
					JOINT LeftFoot
					{
						OFFSET 0.000000 -0.000004 18.949600
						CHANNELS 3 Xrotation Yrotation Zrotation
						JOINT LeftToeBase
						{
							OFFSET 0.000000 -0.000002 16.018799
							CHANNELS 3 Xrotation Yrotation Zrotation
							End Site
							{
								OFFSET -0.030426 0.894205 7.757812
							}
						}
					}
				}
			}
		}
	}
}
MOTION
Frames: 6
Frame Time: 0.041667
55.721996 -3.450646 115.596001 2.260463 1.610746 -1.514482 -0.435317 -0.326021 -0.337603 3.130323 -0.652680 -0.675963 4.775389 -0.660729 -0.668094 -13.081779 13.110229 -4.106883 29.211391 -13.881698 -2.929990 -16.594148 -62.403395 -19.659598 172.582187 -74.157993 159.506869 -0.000001 0.000007 -0.000002 64.716179 -7.138095 1.226991 -0.000006 0.000006 -3.000001 -5.000206 -7.998763 0.000162 -0.985893 52.394798 0.383159 -10.944838 111.794173 33.343717 0.000000 0.000005 0.000003 58.755241 12.043335 -3.578089 -0.000003 -0.000008 2.999989 -5.000192 7.998797 -0.000131 -7.696219 -176.089435 1.145608 -179.999991 0.000005 -1.117004 168.389380 0.108728 -0.676657 -0.000003 -0.000002 0.025175 67.076645 6.958099 2.101260 25.456955 -7.355614 -0.000001 -11.816972 171.456176 -2.701589 -0.000020 -0.000005 -1.042200 -17.475159 2.821105 0.897042 -0.000002 0.000003 -0.261963 69.196073 -6.897728 -2.098296 25.456849 7.355621 0.000004 
55.717701 -3.458209 115.307007 2.247772 1.613518 -1.550334 -0.429311 -0.324470 -0.339452 3.142342 -0.649611 -0.678886 4.787406 -0.657696 -0.671055 -13.156493 13.167999 -4.078662 29.250357 -13.960298 -2.890366 -16.534980 -62.371061 -19.590320 172.695705 -74.142714 159.636219 0.000000 0.000007 -0.000001 64.772596 -7.113476 1.211815 -0.000005 0.000006 -3.000001 -5.000212 -7.998762 0.000162 -1.053674 52.458814 0.473119 -11.058606 111.689275 33.406035 -0.000001 0.000005 0.000002 58.800060 12.021064 -3.565666 0.000002 -0.000005 2.999993 -5.000194 7.998792 -0.000137 -7.747608 -176.102795 1.152013 -179.999991 0.000005 -1.117004 168.261697 0.091050 -0.682085 -0.000003 -0.000002 0.029595 67.103323 6.957964 2.100345 25.456957 -7.355616 -0.000000 -11.819344 171.413132 -2.731735 -0.000020 -0.000004 -1.043840 -17.522681 2.824813 0.899973 -0.000003 0.000003 -0.262231 69.178963 -6.898406 -2.098186 25.456848 7.355620 0.000003 
55.753300 -3.466517 115.032997 2.234923 1.616320 -1.587410 -0.423132 -0.322980 -0.341614 3.154701 -0.646672 -0.682448 4.799763 -0.654800 -0.674652 -13.235380 13.235165 -4.046843 29.294494 -14.046079 -2.846774 -16.470489 -62.332388 -19.514774 172.805466 -74.119205 159.760447 -0.000001 0.000008 -0.000001 64.826084 -7.089609 1.197154 -0.000010 0.000005 -3.000001 -5.000211 -7.998764 0.000163 -1.126697 52.528157 0.570093 -11.178718 111.579739 33.475840 -0.000001 0.000006 0.000002 58.845686 11.999819 -3.553922 -0.000000 -0.000008 2.999989 -5.000194 7.998794 -0.000133 -7.802200 -176.116168 1.158692 -179.999991 0.000005 -1.115992 168.127798 0.072411 -0.688774 -0.000003 -0.000003 0.034170 67.130548 6.957867 2.099303 25.456957 -7.355614 -0.000001 -11.822082 171.368162 -2.762679 -0.000020 -0.000004 -1.045530 -17.572309 2.828837 0.903032 -0.000002 0.000004 -0.262484 69.161751 -6.899069 -2.098283 25.456853 7.355620 0.000002 
55.753895 -3.455098 114.729004 2.221827 1.619722 -1.625433 -0.416716 -0.321478 -0.344010 3.167531 -0.643707 -0.686494 4.812602 -0.651885 -0.678734 -13.318368 13.306440 -4.012648 29.342411 -14.135030 -2.800847 -16.403249 -62.290656 -19.435983 172.908711 -74.091406 159.876383 -0.000001 0.000007 -0.000001 64.877556 -7.066391 1.182993 -0.000009 0.000006 -3.000000 -5.000208 -7.998764 0.000163 -1.204073 52.599092 0.672570 -11.304161 111.466529 33.551709 -0.000001 0.000007 0.000002 58.891612 11.978875 -3.542210 0.000001 -0.000007 2.999993 -5.000188 7.998793 -0.000133 -7.859805 -176.131577 1.165527 -179.999991 0.000005 -1.115993 167.987587 0.052812 -0.694767 -0.000004 -0.000002 0.038888 67.158177 6.957722 2.098325 25.456955 -7.355617 0.000000 -11.826216 171.321252 -2.794455 -0.000021 -0.000005 -1.047270 -17.625542 2.832744 0.906271 -0.000002 0.000004 -0.262761 69.144641 -6.899768 -2.098176 25.456851 7.355619 0.000004 
55.771400 -3.434566 114.443993 2.208458 1.624323 -1.664142 -0.409978 -0.319885 -0.346558 3.181009 -0.640565 -0.690869 4.826069 -0.648796 -0.683146 -13.405374 13.376452 -3.977370 29.393026 -14.223022 -2.754115 -16.335813 -62.249333 -19.356958 173.002572 -74.063266 159.980898 -0.000001 0.000008 -0.000001 64.927464 -7.043972 1.169330 -0.000008 0.000006 -3.000000 -5.000206 -7.998763 0.000163 -1.284878 52.668046 0.779001 -11.430715 111.356454 33.628641 -0.000001 0.000006 0.000003 58.937771 11.957680 -3.530472 -0.000003 -0.000010 2.999990 -5.000189 7.998795 -0.000136 -7.920216 -176.147997 1.172002 -179.999991 0.000005 -1.115993 167.840902 0.033233 -0.701836 -0.000003 -0.000002 0.043736 67.185825 6.957639 2.097259 25.456952 -7.355616 0.000000 -11.832429 171.272458 -2.827150 -0.000019 -0.000005 -1.049060 -17.683870 2.836115 0.909750 -0.000002 0.000003 -0.263100 69.127552 -6.900498 -2.098176 25.456854 7.355620 0.000003 
55.777798 -3.432136 114.132004 2.194731 1.630703 -1.703257 -0.402854 -0.318125 -0.349179 3.195258 -0.637095 -0.695418 4.840327 -0.645380 -0.687737 -13.496207 13.440034 -3.942282 29.445004 -14.305871 -2.708233 -16.270752 -62.211911 -19.280758 173.084384 -74.038732 160.070756 0.000000 0.000008 -0.000002 64.976751 -7.022334 1.156030 -0.000006 0.000005 -3.000000 -5.000209 -7.998763 0.000162 -1.368144 52.731130 0.887786 -11.557120 111.250442 33.704894 0.000000 0.000005 0.000000 58.983847 11.935604 -3.518353 -0.000000 -0.000007 2.999989 -5.000192 7.998796 -0.000133 -7.983252 -176.167395 1.178031 -179.999991 0.000005 -1.115993 167.687592 0.012701 -0.709229 -0.000004 -0.000002 0.048701 67.213371 6.957525 2.096194 25.456957 -7.355615 -0.000000 -11.841556 171.221805 -2.860840 -0.000020 -0.000004 -1.050900 -17.748699 2.838512 0.913515 -0.000001 0.000003 -0.263538 69.110784 -6.901235 -2.098157 25.456853 7.355622 0.000003 
